<?xml version="1.0" standalone="no"?>
<!DOCTYPE svg PUBLIC "-//W3C//DTD SVG 20010904//EN"
 "http://www.w3.org/TR/2001/REC-SVG-20010904/DTD/svg10.dtd">
<svg version="1.0" xmlns="http://www.w3.org/2000/svg"
 width="173.000000pt" height="173.000000pt" viewBox="0 0 173.000000 173.000000"
 preserveAspectRatio="xMidYMid meet">
<metadata>
Created by potrace 1.14, written by Peter Selinger 2001-2017
</metadata>
<g transform="translate(0.000000,173.000000) scale(0.100000,-0.100000)"
fill="#000000" stroke="none">
<path d="M314 1534 c-39 -19 -234 -218 -234 -239 0 -8 -4 -15 -10 -15 -5 0
-10 -9 -10 -19 0 -11 -4 -21 -8 -23 -21 -8 -41 -124 -38 -212 4 -98 25 -165
78 -243 32 -47 136 -143 155 -143 7 0 13 -4 13 -10 0 -5 8 -10 18 -10 10 0 22
-4 28 -9 30 -30 217 -46 309 -28 49 10 165 66 165 80 0 6 3 8 6 4 5 -5 86 67
203 184 52 51 121 105 121 94 0 -4 6 -3 13 3 12 11 85 26 117 26 62 -2 157
-41 199 -83 21 -21 66 -85 65 -91 -1 -3 3 -16 8 -30 5 -14 9 -52 8 -85 -2 -83
-2 -85 -12 -85 -4 0 -8 -7 -8 -17 0 -23 -41 -74 -137 -171 -85 -86 -95 -106
-80 -158 19 -64 110 -82 165 -32 206 186 271 295 273 458 0 73 -7 120 -28 172
-18 48 -70 130 -105 168 -32 35 -135 102 -178 115 -67 21 -107 28 -160 29
-170 5 -261 -39 -440 -212 -127 -122 -193 -172 -232 -175 -10 -1 -18 -4 -18
-7 0 -13 -116 -2 -163 14 -145 51 -221 209 -172 356 15 44 37 74 126 166 95
98 109 117 109 146 0 38 -27 74 -67 89 -32 12 -42 11 -79 -7z"/>
<path d="M1075 1534 c-44 -8 -88 -18 -97 -24 -10 -5 -24 -10 -33 -10 -20 0
-116 -45 -179 -83 -73 -45 -95 -64 -233 -198 -121 -117 -136 -137 -132 -181 3
-29 37 -77 57 -79 4 0 17 -2 29 -5 39 -7 68 12 164 106 52 50 117 111 144 135
52 45 197 125 228 125 9 0 17 4 17 8 0 4 8 8 18 8 9 0 40 4 67 9 57 9 186 9
230 0 54 -11 119 -33 179 -59 51 -23 63 -25 92 -16 66 22 91 83 57 140 -24 41
-136 90 -288 126 -49 12 -246 10 -320 -2z"/>
<path d="M1182 769 c-15 -9 -76 -65 -136 -124 -129 -128 -225 -193 -327 -223
-41 -12 -85 -26 -99 -30 -30 -9 -190 -8 -245 2 -44 8 -137 39 -198 66 -50 23
-102 9 -127 -33 -21 -34 -18 -90 5 -113 17 -17 125 -72 153 -78 9 -1 24 -6 32
-9 96 -36 356 -44 465 -13 6 1 26 6 45 10 58 14 198 83 265 131 35 24 120 100
189 167 121 118 126 125 126 164 0 31 -6 48 -26 68 -15 14 -32 26 -38 27 -6 0
-21 2 -34 3 -12 2 -35 -5 -50 -15z"/>
</g>
</svg>
